<svg xmlns="http://www.w3.org/2000/svg" width="83.063" height="85.456" viewBox="0 0 83.063 85.456">
  <path id="mail_2_" data-name="mail (2)" d="M111.057,33.939a2.02,2.02,0,0,0-.588-1.6l-9.929-7.946V20.473a6.693,6.693,0,0,0-6.686-6.686H87.286L70.808.6l0,0a1.66,1.66,0,0,0-2.546,0l0,0L51.782,13.787H45.213a6.693,6.693,0,0,0-6.686,6.686v3.922L28.6,32.341a2.021,2.021,0,0,0-.588,1.6,1.619,1.619,0,0,0-.009.166V77.929a7.754,7.754,0,0,0,7.946,7.529H103.12a7.755,7.755,0,0,0,7.946-7.529V34.105a1.586,1.586,0,0,0-.009-.166ZM100.54,28.468l6.512,5.212-6.512,5.212ZM69.534,3.652,82.2,13.787H56.871ZM41.708,20.473a3.51,3.51,0,0,1,3.506-3.506H93.855a3.51,3.51,0,0,1,3.506,3.506v4.706s0,0,0,0V41.437L69.534,63.707,41.708,41.437Zm-3.18,8V38.892L32.015,33.68ZM31.182,77.929V37.087L57.063,57.8,31.642,79.792A4.011,4.011,0,0,1,31.182,77.929Zm71.937,4.349H35.948a5.127,5.127,0,0,1-1.9-.362l25.54-22.1,8.672,6.94,0,0a1.587,1.587,0,0,0,1.242.6h.061a1.587,1.587,0,0,0,1.242-.6l0,0,8.672-6.94,25.54,22.1a5.128,5.128,0,0,1-1.9.362Zm4.765-4.349a4.011,4.011,0,0,1-.46,1.863L82,57.8l25.88-20.713ZM53.169,32.013h32.9a1.59,1.59,0,1,0,0-3.18h-32.9a1.59,1.59,0,0,0,0,3.18ZM87.657,39.99a1.59,1.59,0,0,0-1.59-1.59h-32.9a1.59,1.59,0,1,0,0,3.18h32.9A1.59,1.59,0,0,0,87.657,39.99Z" transform="translate(-28.002 -0.002)" fill="#008ac1"/>
</svg>
