<svg width="66" height="70" viewBox="0 0 66 70" fill="none" xmlns="http://www.w3.org/2000/svg">
<path d="M64.7582 30.4943C64.4021 30.2852 63.9619 30.2798 63.6008 30.4803L60.3902 32.2642L59.5 1.134C59.4824 0.502396 58.9651 -0.000291519 58.3333 1.26858e-07H50.1667C49.5349 -0.00029154 49.0177 0.502396 49 1.134L47.9127 39.2L44.3333 41.1833V31.5C44.333 30.8557 43.8104 30.3336 43.1661 30.3339C42.9683 30.3341 42.7738 30.3844 42.6008 30.4803L23.3333 41.1833V31.5C23.333 30.8557 22.8104 30.3336 22.1661 30.3339C21.9683 30.3341 21.7738 30.3844 21.6008 30.4803L0.600833 42.147C0.230271 42.3525 0.000145912 42.7429 0 43.1667V68.8333C0 69.4776 0.522374 70 1.16667 70H64.1667C64.811 70 65.3333 69.4776 65.3333 68.8333V31.5C65.3333 31.0866 65.1146 30.7039 64.7582 30.4943ZM51.3007 2.33333H57.1993L57.267 4.66667H51.2342L51.3007 2.33333ZM51.1665 7H57.3335L58.0918 33.5405L50.2833 37.877L51.1665 7ZM31.5 67.6667H24.5V61.8333H31.5V67.6667ZM40.8333 67.6667H33.8333V61.8333H40.8333V67.6667ZM63 67.6667H43.1667V60.6667C43.1667 60.0224 42.6443 59.5 42 59.5H23.3333C22.689 59.5 22.1667 60.0224 22.1667 60.6667V67.6667H2.33333V43.8538L21 33.4833V43.1667C21.0003 43.811 21.523 44.333 22.1673 44.3328C22.365 44.3326 22.5595 44.2823 22.7325 44.1863L42 33.4833V43.1667C42.0003 43.811 42.523 44.333 43.1673 44.3328C43.365 44.3326 43.5595 44.2823 43.7325 44.1863L54.7353 38.0742L59.85 35.2333L63 33.4833V67.6667Z" fill="#008AC1"/>
<path d="M16.334 46.6667H7.00065C6.35636 46.6667 5.83398 47.1891 5.83398 47.8334V52.5001C5.83398 53.1444 6.35636 53.6667 7.00065 53.6667H16.334C16.9783 53.6667 17.5006 53.1444 17.5006 52.5001V47.8334C17.5006 47.1891 16.9783 46.6667 16.334 46.6667ZM15.1673 51.3334H8.16732V49.0001H15.1673V51.3334Z" fill="#008AC1"/>
<path d="M37.334 46.6667H28.0006C27.3564 46.6667 26.834 47.1891 26.834 47.8334V52.5001C26.834 53.1444 27.3564 53.6667 28.0006 53.6667H37.334C37.9783 53.6667 38.5006 53.1444 38.5006 52.5001V47.8334C38.5006 47.1891 37.9783 46.6667 37.334 46.6667ZM36.1673 51.3334H29.1673V49.0001H36.1673V51.3334Z" fill="#008AC1"/>
<path d="M58.334 46.6667H49.0007C48.3564 46.6667 47.834 47.1891 47.834 47.8334V52.5001C47.834 53.1444 48.3564 53.6667 49.0007 53.6667H58.334C58.9783 53.6667 59.5007 53.1444 59.5007 52.5001V47.8334C59.5007 47.1891 58.9783 46.6667 58.334 46.6667ZM57.1673 51.3334H50.1673V49.0001H57.1673V51.3334Z" fill="#008AC1"/>
</svg>
