<svg width="68" height="68" viewBox="0 0 68 68" fill="none" xmlns="http://www.w3.org/2000/svg">
<path d="M56.6687 23.9752H54.4892V31.6037H52.3096V21.7957H50.13V31.6037H47.9505V17.4365H45.7709V31.6037H43.5913V19.6161H41.4118V31.6037H39.2322V26.1548H37.0526V31.6037H34.873V33.7833H58.8483V31.6037H56.6687V23.9752Z" fill="#008AC1"/>
<path d="M46.8604 13.0774C37.8468 13.0774 30.5137 20.4105 30.5137 29.4241C30.5137 38.4378 37.8468 45.7709 46.8604 45.7709C55.874 45.7709 63.2072 38.4378 63.2072 29.4241C63.2072 20.4105 55.874 13.0774 46.8604 13.0774ZM46.8604 43.5913C39.0489 43.5913 32.6932 37.2357 32.6932 29.4241C32.6932 21.6126 39.0489 15.257 46.8604 15.257C54.672 15.257 61.0276 21.6126 61.0276 29.4241C61.0276 37.2357 54.672 43.5913 46.8604 43.5913Z" fill="#008AC1"/>
<path d="M6.53894 10.8978H8.71851C9.92054 10.8978 10.8981 9.9203 10.8981 8.71827V6.5387C10.8981 5.33667 9.92054 4.35913 8.71851 4.35913H6.53894C5.33691 4.35913 4.35938 5.33667 4.35938 6.5387V8.71827C4.35938 9.9203 5.33691 10.8978 6.53894 10.8978ZM6.53894 6.5387H8.71851L8.7196 8.71827H6.53894L6.53894 6.5387Z" fill="#008AC1"/>
<path d="M15.2577 10.8978H17.4373C18.6393 10.8978 19.6168 9.9203 19.6168 8.71827V6.5387C19.6168 5.33667 18.6393 4.35913 17.4373 4.35913H15.2577C14.0557 4.35913 13.0781 5.33667 13.0781 6.5387V8.71827C13.0781 9.9203 14.0557 10.8978 15.2577 10.8978ZM15.2577 6.5387H17.4373L17.4383 8.71827H15.2577V6.5387Z" fill="#008AC1"/>
<path d="M23.9745 10.8978H26.1541C27.3561 10.8978 28.3336 9.9203 28.3336 8.71827V6.5387C28.3336 5.33667 27.3561 4.35913 26.1541 4.35913H23.9745C22.7725 4.35913 21.7949 5.33667 21.7949 6.5387V8.71827C21.7949 9.9203 22.7725 10.8978 23.9745 10.8978ZM23.9745 6.5387H26.1541L26.1551 8.71827H23.9745V6.5387Z" fill="#008AC1"/>
<path d="M67.5666 29.4242C67.5666 24.0483 65.4895 19.1595 62.1177 15.4749V3.26935C62.1177 1.46685 60.6508 0 58.8483 0H3.26935C1.46685 0 0 1.46685 0 3.26935V49.0403C0 50.8428 1.46685 52.3096 3.26935 52.3096H41.4118V62.1177C41.4118 65.1222 43.8562 67.5666 46.8607 67.5666C49.8652 67.5666 52.3096 65.1222 52.3096 62.1177V52.3096H58.8483C60.6508 52.3096 62.1177 50.8428 62.1177 49.0403V43.3734C65.4895 39.6888 67.5666 34.8001 67.5666 29.4242ZM46.8607 47.9505C36.6451 47.9505 28.3344 39.6398 28.3344 29.4242C28.3344 19.2085 36.6451 10.8978 46.8607 10.8978C57.0764 10.8978 65.387 19.2085 65.387 29.4242C65.387 39.6398 57.0764 47.9505 46.8607 47.9505ZM3.26935 2.17957H58.8483C59.4499 2.17957 59.9381 2.66888 59.9381 3.26935V13.388C56.3702 10.4728 51.817 8.71827 46.8607 8.71827C42.0896 8.71827 37.7033 10.3562 34.1985 13.0774H2.17957V3.26935C2.17957 2.66888 2.66779 2.17957 3.26935 2.17957ZM3.26935 50.1301C2.66779 50.1301 2.17957 49.6407 2.17957 49.0403V15.257H31.8021C28.3115 18.9644 26.1548 23.9426 26.1548 29.4242C26.1548 38.9532 32.6336 46.9773 41.4118 49.3781V50.1301H3.26935ZM46.8607 65.387C45.0582 65.387 43.5914 63.9202 43.5914 62.1177V49.8456C44.6593 50.0167 45.7459 50.1301 46.8607 50.1301C47.9756 50.1301 49.0621 50.0167 50.1301 49.8456V62.1177C50.1301 63.9202 48.6632 65.387 46.8607 65.387ZM58.8483 50.1301H52.3096V49.3781C55.1365 48.6054 57.7291 47.265 59.9381 45.4603V49.0403C59.9381 49.6407 59.4499 50.1301 58.8483 50.1301Z" fill="#008AC1"/>
<path d="M4.35938 23.9752H23.9755V17.4365H4.35938V23.9752ZM6.53894 19.6161H21.7959V21.7957H6.53894V19.6161Z" fill="#008AC1"/>
<path d="M4.35938 26.1548H23.9755V28.3344H4.35938V26.1548Z" fill="#008AC1"/>
<path d="M19.6152 30.5139H23.9744V32.6935H19.6152V30.5139Z" fill="#008AC1"/>
<path d="M4.35938 30.5139H17.4368V32.6935H4.35938V30.5139Z" fill="#008AC1"/>
<path d="M4.35938 34.873H23.9755V37.0526H4.35938V34.873Z" fill="#008AC1"/>
<path d="M4.35938 47.9504H13.0776V39.2322H4.35938V47.9504ZM6.53894 41.4117H10.8981V45.7709H6.53894V41.4117Z" fill="#008AC1"/>
<path d="M15.2578 47.9504H23.9761V39.2322H15.2578V47.9504ZM17.4374 41.4117H21.7965V45.7709H17.4374V41.4117Z" fill="#008AC1"/>
</svg>
