<svg width="70" height="64" viewBox="0 0 70 64" fill="none" xmlns="http://www.w3.org/2000/svg">
<path d="M31.7077 63.415C14.7705 63.415 0.821349 50.0937 0.0416937 33.1684C-0.735041 16.2369 11.9331 1.69197 28.8049 0.137503C45.6767 -1.41697 60.7891 10.5684 63.1183 27.3508C63.2213 28.0989 62.6983 28.7886 61.9502 28.8915C61.2022 28.9943 60.5124 28.4713 60.4096 27.7232C58.451 13.4771 46.1119 2.73433 31.7077 2.73433C20.2907 2.74556 9.94467 9.46066 5.28546 19.8838C0.626245 30.3069 2.52263 42.4944 10.1286 51.0091C17.7345 59.5237 29.6317 62.7778 40.5124 59.3195C41.2319 59.0903 42.0009 59.4877 42.2301 60.2072C42.4592 60.9266 42.0618 61.6957 41.3423 61.9248C38.2269 62.9155 34.9769 63.4182 31.7077 63.415Z" fill="#008AC1"/>
<path d="M31.7073 16.7231C23.2483 16.7231 15.5926 13.9849 11.2282 9.39848C10.7078 8.85143 10.7293 7.98603 11.2764 7.46555C11.8234 6.94508 12.6888 6.96663 13.2093 7.51368C17.0101 11.5075 24.0979 13.9887 31.7074 13.9887C39.3168 13.9887 46.4038 11.5078 50.2046 7.51422C50.7251 6.96717 51.5905 6.94563 52.1375 7.4661C52.6846 7.98658 52.7061 8.85198 52.1856 9.39903C47.821 13.9846 40.1656 16.7231 31.7073 16.7231Z" fill="#008AC1"/>
<path d="M12.2188 56.3267C11.672 56.3267 11.1777 56.0009 10.9622 55.4983C10.7467 54.9957 10.8514 54.4131 11.2284 54.017C15.5928 49.4306 23.2485 46.6924 31.7089 46.6924C33.0729 46.6919 34.436 46.765 35.7921 46.9111C36.5428 46.9927 37.0853 47.6674 37.0037 48.4181C36.9222 49.1687 36.2475 49.7112 35.4968 49.6297C34.2388 49.4938 32.9743 49.4259 31.7089 49.4262C24.0994 49.4262 17.0114 51.9074 13.2108 55.9012C12.9528 56.1734 12.5939 56.3273 12.2188 56.3267Z" fill="#008AC1"/>
<path d="M31.7086 63.4151C26.3922 63.4151 21.4484 60.0217 17.7876 53.8598C14.2595 47.9224 12.3164 40.0539 12.3164 31.7075C12.3164 23.3611 14.2595 15.4941 17.7876 9.55527C21.4484 3.39336 26.3922 0 31.7086 0C36.5334 0 41.1422 2.86562 44.6843 8.06914C48.0629 13.0315 50.2734 19.8253 50.9083 27.1994C50.9731 27.9517 50.4159 28.6141 49.6636 28.679C48.9113 28.7438 48.2489 28.1865 48.184 27.4343C46.9713 13.3522 39.8885 2.73438 31.7086 2.73438C27.3957 2.73438 23.2867 5.6525 20.1384 10.952C16.8574 16.4743 15.0508 23.8454 15.0508 31.7075C15.0508 39.5697 16.8574 46.9407 20.1384 52.4631C23.2864 57.7626 27.3957 60.6807 31.7086 60.6807C32.4637 60.6807 33.0758 61.2928 33.0758 62.0479C33.0758 62.803 32.4637 63.4151 31.7086 63.4151Z" fill="#008AC1"/>
<path d="M40.5472 33.0747H1.36719C0.612111 33.0747 0 32.4626 0 31.7075C0 30.9524 0.612111 30.3403 1.36719 30.3403H40.5472C41.3023 30.3403 41.9144 30.9524 41.9144 31.7075C41.9144 32.4626 41.3023 33.0747 40.5472 33.0747Z" fill="#008AC1"/>
<path d="M31.707 63.3883C30.952 63.3883 30.3398 62.7762 30.3398 62.0211V1.36719C30.3398 0.612111 30.952 0 31.707 0C32.4621 0 33.0742 0.612111 33.0742 1.36719V62.0211C33.0742 62.7762 32.4621 63.3883 31.707 63.3883Z" fill="#008AC1"/>
<path d="M53.8789 61.6425C44.9754 61.6425 37.7578 54.4249 37.7578 45.5215C37.7578 36.618 44.9754 29.4004 53.8789 29.4004C62.7823 29.4004 69.9999 36.618 69.9999 45.5215C69.99 54.4207 62.7782 61.6326 53.8789 61.6425ZM53.8789 32.135C46.4856 32.135 40.4921 38.1285 40.4922 45.5218C40.4922 52.915 46.4857 58.9084 53.879 58.9084C61.2722 58.9084 67.2656 52.9149 67.2655 45.5216C67.2573 38.1318 61.2687 32.1432 53.8789 32.135Z" fill="#008AC1"/>
<path d="M57.5166 48.6739C57.2766 48.6742 57.0407 48.6109 56.833 48.4904L53.3555 46.4828C52.9325 46.2386 52.6719 45.7873 52.6719 45.2989V36.9998C52.6719 36.2447 53.284 35.6326 54.0391 35.6326C54.7941 35.6326 55.4062 36.2447 55.4062 36.9998V44.5094L58.2002 46.1227C58.7364 46.432 58.9978 47.0629 58.8377 47.6608C58.6775 48.2587 58.1356 48.6741 57.5166 48.6739Z" fill="#008AC1"/>
</svg>
