<svg width="70" height="69" viewBox="0 0 70 69" fill="none" xmlns="http://www.w3.org/2000/svg">
<path d="M68.8333 0H1.16667C0.522375 0 0 0.522375 0 1.16667V47.8333C0 48.4776 0.522375 49 1.16667 49H22.2332C22.2682 49.3885 22.3253 49.7712 22.3942 50.1503L15.995 57.7768C15.5805 58.2702 15.6446 59.0061 16.1379 59.4205C16.2769 59.5373 16.4414 59.62 16.618 59.6622L23.6623 61.3445L26.5428 67.9945C26.7989 68.5857 27.4858 68.8575 28.077 68.6015C28.2435 68.5294 28.3908 68.4195 28.5075 68.2803L34.8962 60.6667C34.9312 60.6667 34.965 60.6667 35 60.6667C35.035 60.6667 35.0688 60.6667 35.1038 60.6667L41.4925 68.2803C41.9064 68.7741 42.6423 68.8389 43.136 68.425C43.275 68.3085 43.385 68.161 43.4572 67.9945L46.3377 61.3445L53.382 59.6622C54.0088 59.5128 54.396 58.8837 54.2466 58.2569C54.2045 58.0803 54.1218 57.9158 54.005 57.7768L47.6058 50.1503C47.6747 49.7712 47.7318 49.3885 47.7668 49H68.8333C69.4776 49 70 48.4776 70 47.8333V1.16667C70 0.522229 69.4776 0 68.8333 0ZM27.9335 65.3333L25.571 59.885C25.425 59.5481 25.129 59.2996 24.7718 59.2142L18.9968 57.834L23.1852 52.8418C23.2073 52.8932 23.2365 52.9398 23.2587 52.9912C23.4103 53.3412 23.5748 53.6737 23.7568 54.0038C23.8315 54.1415 23.9108 54.2768 23.9902 54.411C24.1504 54.6777 24.3199 54.9391 24.4988 55.195C24.6237 55.3735 24.7543 55.545 24.8885 55.72C25.0448 55.9183 25.2058 56.112 25.375 56.3033C25.5442 56.4947 25.7413 56.7058 25.9362 56.8995C26.0797 57.043 26.2278 57.1818 26.3795 57.3183C26.5055 57.435 26.6187 57.5575 26.7505 57.6683C26.8823 57.7792 27.006 57.8538 27.132 57.9518C27.1892 57.9962 27.2382 58.0475 27.2965 58.0907C27.4015 58.17 27.5123 58.2388 27.6197 58.3147C27.7877 58.4313 27.9533 58.5573 28.1272 58.6647C28.4585 58.877 28.8003 59.0707 29.1468 59.248C29.2798 59.3157 29.4152 59.3775 29.5505 59.4405C29.8616 59.5868 30.1747 59.7198 30.4897 59.8395C30.5807 59.8733 30.6705 59.9118 30.7615 59.9433C31.2034 60.0986 31.6537 60.2292 32.1102 60.3342L32.123 60.3377L27.9335 65.3333ZM37.191 58.086C36.6559 58.199 36.113 58.2705 35.567 58.2995H35.5518C35.3675 58.3088 35.1832 58.3217 34.9977 58.3217C34.8122 58.3217 34.6278 58.3088 34.4435 58.2995H34.4283C33.8835 58.2703 33.3417 58.1993 32.8078 58.0872L32.7098 58.0673C32.5022 58.0218 32.2968 57.9658 32.0938 57.9075C32.0087 57.883 31.9223 57.8608 31.8383 57.834C31.6925 57.7885 31.549 57.7348 31.4055 57.6835C31.262 57.6322 31.1255 57.582 30.9878 57.5248C30.9027 57.4887 30.8187 57.4502 30.7347 57.4082C30.5433 57.3218 30.3532 57.2343 30.1677 57.1375L30.0743 57.0862C29.5934 56.8289 29.1331 56.5348 28.6977 56.2065C28.455 56.0257 28.231 55.8262 28.0105 55.629C27.7497 55.3964 27.5008 55.1507 27.265 54.8928C27.1717 54.7925 27.0713 54.6968 26.9827 54.593C26.6569 54.2098 26.3597 53.803 26.0937 53.3762C26.054 53.3132 26.0202 53.2467 25.977 53.1813C25.7289 52.7669 25.5106 52.3352 25.3237 51.8898C25.3073 51.8502 25.2887 51.8105 25.2735 51.7732C25.0669 51.2628 24.9006 50.737 24.7765 50.2005C24.7765 50.1795 24.7602 50.1632 24.7543 50.1422C24.5849 49.3843 24.4996 48.6099 24.5 47.8333C24.4965 42.0343 29.1947 37.3306 34.9936 37.3269C40.7926 37.3234 45.4963 42.0216 45.5 47.8205C45.5004 48.606 45.4128 49.3889 45.2387 50.1549C45.2328 50.1747 45.2212 50.1922 45.2165 50.212C45.0925 50.748 44.9267 51.2734 44.7207 51.7835C44.7043 51.8244 44.6857 51.8652 44.6682 51.9002C44.4818 52.3428 44.2642 52.7717 44.0172 53.1835C43.9787 53.2489 43.9437 53.3177 43.9005 53.383C43.6345 53.8093 43.3377 54.2156 43.0127 54.5987C42.9252 54.7014 42.826 54.7947 42.7338 54.895C42.4948 55.1552 42.2428 55.4033 41.979 55.6382C41.7573 55.8354 41.5368 56.0349 41.2953 56.2145C41.0538 56.3942 40.838 56.5459 40.6023 56.6964L40.5883 56.7045C40.3772 56.8387 40.1613 56.9624 39.942 57.079C39.8988 57.1024 39.8568 57.1269 39.8137 57.149C39.6375 57.2412 39.4637 57.324 39.2782 57.4045C39.1848 57.4465 39.0927 57.4897 38.9982 57.5282C38.8675 57.583 38.7345 57.6309 38.6015 57.6787C38.4685 57.7265 38.304 57.7884 38.1523 57.835C38.0718 57.8607 37.9902 57.8829 37.9085 57.9062C37.702 57.9645 37.4943 58.0229 37.2843 58.0672L37.191 58.086ZM51.0032 57.8305L45.2282 59.2107C44.871 59.2961 44.575 59.5446 44.429 59.8815L42.0665 65.3333L37.877 60.3412H37.8875C38.3457 60.2365 38.7976 60.1056 39.2408 59.9492C39.3283 59.9188 39.4123 59.8827 39.4998 59.8512C39.8253 59.7275 40.1462 59.5922 40.4612 59.4417C40.5895 59.3822 40.7178 59.325 40.8438 59.2597C41.1938 59.0777 41.5438 58.8805 41.8798 58.6647C42.042 58.562 42.1972 58.4465 42.3547 58.3357C42.4713 58.2552 42.588 58.1817 42.7047 58.0965C42.7665 58.0498 42.8213 57.995 42.882 57.9472C42.9987 57.8515 43.134 57.771 43.253 57.6707C43.372 57.5703 43.4933 57.4373 43.617 57.3277C43.771 57.1877 43.9227 57.0465 44.0697 56.9007C44.2617 56.7086 44.4477 56.511 44.6273 56.308C44.7965 56.1167 44.9575 55.923 45.115 55.7247C45.2492 55.5532 45.3798 55.3747 45.5047 55.1997C45.6843 54.9453 45.8547 54.684 46.0122 54.418C46.0938 54.2827 46.1732 54.1462 46.2455 54.0073C46.4268 53.6783 46.592 53.3419 46.7413 52.9982C46.7623 52.9387 46.7927 52.8908 46.8148 52.8383L51.0032 57.8305ZM67.6667 46.6667H47.7738C47.1408 39.6112 40.9079 34.4049 33.8524 35.0381C27.6744 35.5925 22.7783 40.4886 22.2238 46.6667H2.33333V2.33333H67.6667V46.6667Z" fill="#008AC1"/>
<path d="M5.83268 4.66675C5.18839 4.66675 4.66602 5.18913 4.66602 5.83342V10.5001H6.99935V7.00008H10.4994V4.66675H5.83268Z" fill="#008AC1"/>
<path d="M64.1667 4.66675H59.5V7.00008H63V10.5001H65.3333V5.83342C65.3333 5.18898 64.811 4.66675 64.1667 4.66675Z" fill="#008AC1"/>
<path d="M63 38.5V42H59.5V44.3333H64.1667C64.811 44.3333 65.3333 43.811 65.3333 43.1667V38.5H63Z" fill="#008AC1"/>
<path d="M6.99935 42V38.5H4.66602V43.1667C4.66602 43.811 5.18839 44.3333 5.83268 44.3333H10.4994V42H6.99935Z" fill="#008AC1"/>
<rect x="21" y="13" width="28" height="2" fill="#008AC1"/>
<rect x="14" y="20" width="42" height="2" fill="#008AC1"/>
<path d="M35.0007 39.6667C30.4903 39.6667 26.834 43.3231 26.834 47.8334C26.8391 52.3416 30.4925 55.995 35.0007 56.0001C39.511 56.0001 43.1673 52.3438 43.1673 47.8334C43.1673 43.3231 39.511 39.6667 35.0007 39.6667ZM35.0007 53.6667C31.7791 53.6667 29.1673 51.055 29.1673 47.8334C29.1711 44.6134 31.7807 42.0039 35.0007 42.0001C38.2223 42.0001 40.834 44.6118 40.834 47.8334C40.834 51.055 38.2223 53.6667 35.0007 53.6667Z" fill="#008AC1"/>
</svg>
