<svg width="68" height="65" viewBox="0 0 68 65" fill="none" xmlns="http://www.w3.org/2000/svg">
<path d="M18.1916 40.9371C18.8266 40.5709 19.044 39.7579 18.6777 39.1229C18.3109 38.4884 17.4985 38.2705 16.8635 38.6368C16.2285 39.0036 16.0106 39.8165 16.3773 40.451C16.7436 41.086 17.5566 41.3039 18.1916 40.9371Z" fill="#008AC1"/>
<path d="M12.7479 50.1038L19.4363 61.6891C20.8796 64.1918 24.1262 65.1184 26.6937 63.6341C29.2343 62.1659 30.1074 58.9198 28.6376 56.3771L24.6533 49.4751L28.1038 47.4829C28.7388 47.1156 28.9567 46.3036 28.5899 45.6686L26.8628 42.6772C27.0688 42.6373 28.4229 42.3717 52.3016 37.6875C55.2535 37.5271 57.0221 34.2987 55.5311 31.7177L51.1171 24.0727L53.9378 19.8004C54.2149 19.3801 54.2315 18.8401 53.9799 18.4043L51.3236 13.8036C51.072 13.3678 50.5942 13.1125 50.0936 13.1421L44.9839 13.4487L40.0839 4.96118C39.3742 3.73163 38.1026 2.98715 36.6831 2.96951C36.666 2.96899 36.6494 2.96899 36.6323 2.96899C35.2606 2.96899 34.0155 3.65173 33.2778 4.80605L15.9281 26.9079L4.64893 33.4198C0.212693 35.9801 -1.324 41.6713 1.24613 46.1195C3.59421 50.1868 8.54461 51.7868 12.7479 50.1038ZM26.3378 57.7058C27.0714 58.9748 26.6371 60.5986 25.3645 61.3337C24.0878 62.072 22.4618 61.6186 21.7366 60.3615L15.096 48.8582L19.6967 46.202C27.3821 59.5153 26.2143 57.4926 26.3378 57.7058ZM23.3251 47.1742L21.997 44.8738L24.2974 43.5457L25.6255 45.8461L23.3251 47.1742ZM49.4336 15.8425L51.2691 19.0217L49.6323 21.5005L46.4687 16.0204L49.4336 15.8425ZM35.4992 6.26235C35.8556 5.67922 36.4211 5.61904 36.6504 5.62527C36.8772 5.62786 37.4421 5.69842 37.783 6.28881L53.2308 33.0458C53.734 33.9169 53.1223 35.0121 52.1133 35.037C51.9322 35.0411 51.8487 35.0738 51.3849 35.1604L35.0443 6.85749C35.3873 6.41652 35.4313 6.37389 35.4992 6.26235ZM33.2767 9.109L48.6295 35.7011L25.459 40.2457L18.4137 28.0431L33.2767 9.109ZM3.54641 44.7914C2.96328 43.7823 2.65512 42.6368 2.65512 41.4778C2.65512 39.109 3.92825 36.9031 5.97698 35.7202L16.3285 29.7437L22.9692 41.2454L12.6176 47.2225C9.44618 49.0528 5.37726 47.9623 3.54641 44.7914Z" fill="#008AC1"/>
<path d="M14.0753 41.7792C13.7085 41.1442 12.8961 40.9263 12.261 41.2931L9.9607 42.6212C9.32672 42.9875 8.51274 42.7691 8.14646 42.1351C7.77967 41.5001 6.96723 41.2822 6.33221 41.649C5.6972 42.0158 5.47931 42.8282 5.8461 43.4633C6.9392 45.3569 9.37755 46.0246 11.2888 44.9216L13.5892 43.5935C14.2242 43.2267 14.4421 42.4148 14.0753 41.7792Z" fill="#008AC1"/>
<path d="M66.0266 5.80987L58.6259 9.92808C57.9852 10.285 57.7543 11.0938 58.1113 11.7345C58.4672 12.3747 59.2755 12.6066 59.9177 12.2492L67.3179 8.13098C67.9591 7.77404 68.1894 6.96524 67.8325 6.32452C67.4761 5.68328 66.6672 5.45294 66.0266 5.80987Z" fill="#008AC1"/>
<path d="M65.2493 19.5652L60.1178 18.1904C59.4092 18.0005 58.6808 18.4207 58.4909 19.1294C58.301 19.8381 58.7218 20.566 59.4304 20.7558L64.5624 22.1307C65.2752 22.3221 66 21.8951 66.1888 21.1916C66.3787 20.4829 65.9579 19.7546 65.2493 19.5652Z" fill="#008AC1"/>
<path d="M52.3536 0.984638L50.9773 6.11658C50.7874 6.82526 51.2076 7.55313 51.9163 7.74353C52.6244 7.93289 53.3528 7.5137 53.5432 6.80451L54.9191 1.67256C55.109 0.963886 54.6887 0.235497 53.9801 0.0456149C53.2719 -0.144265 52.5435 0.275962 52.3536 0.984638Z" fill="#008AC1"/>
</svg>
