<svg width="67" height="67" viewBox="0 0 67 67" fill="none" xmlns="http://www.w3.org/2000/svg">
<path d="M52.6627 33.5818L52.2214 31.8201C54.1849 30.957 55.636 29.1477 56.0039 26.9716H56.101C58.481 26.9716 60.4165 25.0361 60.4165 22.6562C60.4165 21.6927 60.0885 20.8124 59.5534 20.0928C60.109 18.7237 60.4165 17.25 60.4165 15.7773C60.4165 12.1588 58.727 8.93301 56.101 6.83138V3.2366C56.101 1.45215 54.6489 0 52.8644 0H3.2366C1.45215 0 0 1.45215 0 3.2366V39.918C0 41.7025 1.45215 43.1546 3.2366 43.1546H19.2189L19.9784 51.5104C20.328 55.3566 23.5063 58.2587 27.3687 58.2587C29.8285 58.2587 32.0704 57.0677 33.4459 55.0944V66.8897H66.8907V50.8717C66.8897 42.3552 60.9483 35.1948 52.6627 33.5818ZM50.6344 55.8129L47.4701 59.7681L44.3058 55.8129L47.086 40.9839L47.4701 40.5243L47.8531 40.985L50.6344 55.8129ZM27.6136 38.8392H31.4079C30.0971 40.1608 28.9956 41.6971 28.1498 43.3952L27.6136 38.8392ZM34.0102 36.6814H27.36L26.9716 33.3812V33.2744C26.9716 32.1254 26.5876 31.0713 25.9553 30.2071H32.366V17.2618H25.8928V28.0505H23.735V8.63092H17.2618V28.0505H15.1041V15.1041H8.63092V30.2082H14.1504C14.5561 32.1329 16.0114 33.7038 17.9825 34.1968L18.4141 34.3058L18.6298 36.6814H6.47319V6.47319H39.3171C36.4203 8.5554 34.5237 11.9452 34.5237 15.7773C34.5237 17.2521 34.8312 18.7248 35.3868 20.0928C34.8517 20.8113 34.5237 21.6927 34.5237 22.6562C34.5237 25.0361 36.4592 26.9716 38.8392 26.9716H38.9363C39.3042 29.1477 40.7552 30.957 42.7188 31.8201L42.2732 33.6002L40.4607 33.9627C38.1228 34.4298 35.9359 35.3695 34.0102 36.6814ZM24.6607 32.366H19.5512L18.5047 32.1049C17.5035 31.8546 16.7246 31.1317 16.3772 30.2082H21.7467C23.119 30.2082 24.2702 31.121 24.6607 32.366ZM21.5773 28.0505H19.4196V10.7887H21.5773V28.0505ZM28.0505 28.0505V19.4196H30.2082V28.0505H28.0505ZM12.9464 17.2618V28.0505H10.7887V17.2618H12.9464ZM38.8392 24.8139C37.6492 24.8139 36.6814 23.8462 36.6814 22.6562C36.6814 21.4662 37.6492 20.4984 38.8392 20.4984V24.8139ZM42.7997 35.6943L46.0104 38.905L42.914 42.6195L42.2937 35.7946L42.7997 35.6943ZM48.9298 38.906L52.1416 35.6943C52.311 35.7266 52.4793 35.7579 52.6465 35.7957L52.0261 42.6217L48.9298 38.906ZM50.5912 34.1925L47.4701 37.3136L44.3489 34.1925L44.8118 32.3401C44.9779 32.353 45.143 32.366 45.3124 32.366H49.6278C49.7972 32.366 49.9623 32.353 50.1284 32.3412L50.5912 34.1925ZM53.9433 25.8928C53.9433 28.2727 52.0078 30.2082 49.6278 30.2082H45.3124C42.9324 30.2082 40.9969 28.2727 40.9969 25.8928V18.0127C42.3681 17.4539 43.6131 16.6534 44.6823 15.6479C47.4539 17.4129 50.6366 18.3407 53.9433 18.3407V25.8928ZM56.101 24.8139V20.4984C57.291 20.4984 58.2587 21.4662 58.2587 22.6562C58.2587 23.8462 57.291 24.8139 56.101 24.8139ZM58.2587 15.7773C58.2587 16.7602 58.0915 17.7452 57.784 18.6827C57.2662 18.4626 56.6976 18.3407 56.101 18.3407V16.183H53.9433C51.1663 16.183 48.4885 15.4353 46.1344 14.008L47.2543 12.5148L45.5281 11.2202L44.3381 12.8061C43.132 14.4147 41.4845 15.6015 39.576 16.2391L38.8392 16.484V18.3407C38.2425 18.3407 37.674 18.4626 37.1561 18.6827C36.8487 17.7463 36.6814 16.7612 36.6814 15.7773C36.6814 10.6473 40.8556 6.47319 45.9856 6.47319H47.4701H48.9546C54.0846 6.47319 58.2587 10.6473 58.2587 15.7773ZM3.2366 40.9969C2.64106 40.9969 2.15773 40.5136 2.15773 39.918V3.2366C2.15773 2.64106 2.64106 2.15773 3.2366 2.15773H52.8644C53.4599 2.15773 53.9433 2.64106 53.9433 3.2366V5.47416C52.4329 4.73945 50.7444 4.31546 48.9546 4.31546H47.4701H45.9856H4.31546V38.8392H18.8262L19.0226 40.9969H3.2366ZM64.7319 64.7319H60.4165V45.3124H58.2587V64.7319H35.6026V45.3124H33.4448V50.4521L32.0736 53.1924C31.1771 54.9865 29.3743 56.101 27.3676 56.101C24.6283 56.101 22.3746 54.0436 22.1275 51.3141L20.6009 34.5237H24.9585L26.9781 51.9118L29.1207 51.6593L28.632 47.5014L29.8403 44.842C31.7909 40.5524 35.6231 37.4075 40.1683 36.2671L41.2353 48.0052L44.2529 44.3834L42.0013 56.3891L47.4701 63.2226L52.9367 56.3891L50.6851 44.3824L53.7027 48.0041L54.7557 36.4214C60.6851 38.646 64.7319 44.2917 64.7319 50.8717L64.7319 64.7319Z" fill="#008AC1"/>
<path d="M12.9473 32.366H15.105V34.5237H12.9473V32.366Z" fill="#008AC1"/>
<path d="M8.63086 32.366H10.7886V34.5237H8.63086V32.366Z" fill="#008AC1"/>
<ellipse cx="43.6211" cy="20.5044" rx="1" ry="0.5" fill="#008AC1"/>
<ellipse cx="50.6211" cy="20.5044" rx="1" ry="0.5" fill="#008AC1"/>
<path d="M43.9181 24.051L42.3926 25.5765L43.0248 26.2088C44.1954 27.3793 45.8158 28.0504 47.4708 28.0504C49.1258 28.0504 50.7462 27.3793 51.9168 26.2088L52.549 25.5765L51.0235 24.051L50.3913 24.6832C49.622 25.4525 48.5583 25.8926 47.4708 25.8926C46.3833 25.8926 45.3195 25.4525 44.5503 24.6832L43.9181 24.051Z" fill="#008AC1"/>
</svg>
