<svg width="68" height="68" viewBox="0 0 68 68" fill="none" xmlns="http://www.w3.org/2000/svg">
<path d="M40.8502 68C39.2824 68 37.8814 66.8275 36.5206 65.689C35.6892 64.9924 34.5494 64.0389 33.9992 64.0389C33.4498 64.0389 32.3101 64.9924 31.4786 65.689C29.988 66.9358 28.2973 68.3534 26.4358 67.917C24.5148 67.4703 23.5744 65.4036 22.7445 63.5812C22.3303 62.6696 21.7028 61.2915 21.257 61.0709C20.784 60.8345 19.3159 61.199 18.3445 61.4378C16.4537 61.9035 14.3117 62.4284 12.7971 61.1927C11.2772 59.9506 11.3042 57.6886 11.3297 55.6939C11.3421 54.6763 11.3606 53.1393 11.0407 52.7282C10.7247 52.3234 9.26191 52.0032 8.29368 51.7913C6.37886 51.3723 4.21059 50.8971 3.36059 49.0945C2.52295 47.3195 3.50045 45.3066 4.36127 43.5308C4.80868 42.6105 5.48405 41.2183 5.36582 40.6846C5.25918 40.2062 4.09545 39.282 3.32582 38.6701C1.76723 37.4335 0 36.0294 0 33.999C0 31.9687 1.76723 30.5653 3.32659 29.3272C4.09623 28.7161 5.25995 27.7918 5.36659 27.3127C5.48482 26.779 4.80945 25.3867 4.36282 24.4656C3.50123 22.6899 2.5245 20.6777 3.36291 18.9012C4.21291 17.0994 6.38118 16.6242 8.29523 16.2052C9.26345 15.9933 10.7262 15.6731 11.0415 15.269C11.363 14.8571 11.3444 13.3194 11.332 12.3018C11.3073 10.3071 11.2803 8.04587 12.7995 6.80379C14.3132 5.56725 16.4568 6.09381 18.3469 6.5587C19.3197 6.79747 20.7864 7.15878 21.2585 6.92634C21.7051 6.70575 22.3318 5.32848 22.7468 4.4161C23.5759 2.59291 24.5155 0.526996 26.4365 0.0802911C28.2957 -0.351392 29.9895 1.06067 31.4794 2.30828C32.3116 3.00482 33.4514 3.95832 34.0008 3.95832C34.5502 3.95832 35.69 3.00482 36.5214 2.30907C38.0128 1.06067 39.7027 -0.354554 41.565 0.0802911C43.4852 0.526996 44.4256 2.5937 45.2556 4.41689C45.6705 5.32848 46.2972 6.70654 46.7438 6.92713C47.2175 7.16037 48.6834 6.79826 49.6547 6.55949C51.5456 6.0946 53.6883 5.56804 55.2029 6.80458C56.7228 8.04666 56.6958 10.3079 56.6703 12.3034C56.6579 13.3209 56.6394 14.8587 56.9593 15.269C57.2753 15.6731 58.7381 15.9941 59.7063 16.2059C61.6211 16.625 63.7894 17.0993 64.6394 18.902C65.4771 20.6777 64.4995 22.6907 63.6387 24.4664C63.1913 25.3875 62.516 26.779 62.6342 27.3127C62.7408 27.7918 63.9045 28.716 64.6742 29.3272C66.2328 30.5653 68 31.9687 68 33.999C68 36.0294 66.2328 37.4327 64.6734 38.6708C63.9038 39.282 62.7401 40.2055 62.6334 40.6862C62.5152 41.2198 63.1906 42.6113 63.6372 43.5324C64.4988 45.3082 65.4755 47.3203 64.6371 49.0969C63.7871 50.8987 61.6188 51.3739 59.7048 51.7921C58.7366 52.0048 57.2738 52.325 56.9577 52.729C56.6371 53.1409 56.6556 54.6787 56.668 55.6962C56.6927 57.6902 56.7197 59.9514 55.2006 61.1935C53.6868 62.43 51.5432 61.9027 49.6531 61.4386C48.6803 61.1998 47.2136 60.8369 46.7415 61.0717C46.2949 61.2915 45.6682 62.6696 45.2532 63.5812C44.4241 65.4051 43.4845 67.4711 41.5635 67.9178C41.3224 67.9739 41.0844 68 40.8502 68ZM20.7786 57.8365C21.4192 57.8365 22.0336 57.9424 22.6 58.2215C24.0395 58.9315 24.8061 60.6163 25.5471 62.2458C25.9142 63.0522 26.6776 64.7299 27.1204 64.8327C27.5323 64.9071 28.8768 63.7788 29.5213 63.2396C30.9106 62.0774 32.3464 60.8756 33.9992 60.8756C35.6521 60.8756 37.0886 62.0782 38.4772 63.2396C39.1216 63.7788 40.426 64.8849 40.8796 64.8327C41.3208 64.7292 42.085 63.0522 42.4513 62.2458C43.1916 60.6163 43.9581 58.9331 45.3985 58.2215C46.8636 57.4981 48.6471 57.9384 50.3741 58.363C51.2048 58.567 52.9365 58.9931 53.2703 58.7212C53.6095 58.4445 53.5871 56.6142 53.5763 55.735C53.5539 53.9229 53.5307 52.0499 54.5414 50.7548C55.546 49.4677 57.3302 49.0771 59.0565 48.6992C59.9018 48.5142 61.6598 48.1291 61.8522 47.722C62.0315 47.3401 61.2448 45.7177 60.867 44.9382C60.0749 43.3055 59.2551 41.6167 59.6182 39.9849C59.9698 38.402 61.3971 37.2683 62.7764 36.1725C63.5228 35.5811 64.9091 34.4805 64.9091 33.999C64.9091 33.5175 63.5228 32.417 62.7779 31.8248C61.3978 30.729 59.9706 29.596 59.619 28.0124C59.2566 26.3805 60.0765 24.6918 60.8685 23.0591C61.2464 22.2796 62.0338 20.658 61.8537 20.2753C61.6613 19.8673 59.9034 19.4831 59.0588 19.2981C57.3325 18.9202 55.5475 18.5296 54.543 17.2432C53.533 15.949 53.5562 14.0752 53.5786 12.2639C53.5894 11.3847 53.6118 9.5536 53.2726 9.27688C52.9403 9.00491 51.2079 9.43105 50.3756 9.63504C48.6494 10.0596 46.8659 10.4992 45.4001 9.77577C43.9605 9.06499 43.1939 7.38095 42.4529 5.75226C42.0858 4.94582 41.3231 3.26811 40.8796 3.16533C40.4546 3.09021 39.1224 4.21923 38.478 4.75765C37.0894 5.92066 35.6536 7.12242 34.0008 7.12242C32.3479 7.12242 30.9122 5.91987 29.5228 4.75765C28.8784 4.21844 27.5338 3.09496 27.1204 3.16453C26.6784 3.26732 25.9142 4.94503 25.5479 5.75147C24.8069 7.38016 24.0411 9.0642 22.6015 9.77498C21.1364 10.4976 19.353 10.0596 17.6251 9.63424C16.7945 9.42947 15.0612 9.00411 14.729 9.2753C14.3897 9.55281 14.4121 11.3831 14.423 12.2623C14.4454 14.0744 14.4685 15.9482 13.4578 17.2417C12.4533 18.5288 10.669 18.9194 8.94278 19.2973C8.09741 19.4823 6.33946 19.8673 6.14705 20.2745C5.96777 20.6564 6.75441 22.2788 7.13228 23.0583C7.92432 24.691 8.74418 26.3797 8.381 28.0116C8.02941 29.5944 6.60218 30.7282 5.22287 31.824C4.47718 32.417 3.09091 33.5175 3.09091 33.999C3.09091 34.4805 4.47718 35.5819 5.22209 36.1733C6.60218 37.2691 8.02941 38.4012 8.381 39.9849C8.74341 41.6167 7.92355 43.3047 7.1315 44.9382C6.75364 45.7177 5.96623 47.3393 6.14627 47.722C6.33868 48.1307 8.09664 48.515 8.942 48.7C10.6675 49.0779 12.4525 49.4685 13.457 50.7556C14.467 52.0499 14.4438 53.9228 14.4214 55.735C14.4106 56.6141 14.3882 58.4452 14.7274 58.722C15.0597 58.99 16.7921 58.5678 17.6244 58.363C18.6822 58.1021 19.7633 57.8365 20.7786 57.8365ZM24.2745 46.1858L45.9108 24.0482C46.5143 23.4307 46.5143 22.4298 45.9108 21.8123C45.3073 21.1948 44.3291 21.1948 43.7256 21.8123L22.0892 43.9499C21.4857 44.5673 21.4857 45.5683 22.0892 46.1858C22.3913 46.4949 22.7862 46.6491 23.1818 46.6491C23.5775 46.6491 23.9723 46.4949 24.2745 46.1858ZM26.2727 31.6271C23.2908 31.6271 20.8636 29.1446 20.8636 26.0927C20.8636 23.0409 23.2908 20.5583 26.2727 20.5583C29.2547 20.5583 31.6818 23.0409 31.6818 26.0927C31.6818 29.1446 29.2547 31.6271 26.2727 31.6271ZM26.2727 23.7209C24.9946 23.7209 23.9545 24.785 23.9545 26.0927C23.9545 27.4004 24.9946 28.4646 26.2727 28.4646C27.5508 28.4646 28.5909 27.4004 28.5909 26.0927C28.5909 24.785 27.5508 23.7209 26.2727 23.7209ZM41.7273 47.4397C38.7453 47.4397 36.3182 44.9563 36.3182 41.9053C36.3182 38.8543 38.7453 36.3709 41.7273 36.3709C44.7092 36.3709 47.1364 38.8543 47.1364 41.9053C47.1364 44.9563 44.7092 47.4397 41.7273 47.4397ZM41.7273 39.5334C40.4492 39.5334 39.4091 40.5976 39.4091 41.9053C39.4091 43.213 40.4492 44.2772 41.7273 44.2772C43.0054 44.2772 44.0455 43.213 44.0455 41.9053C44.0455 40.5976 43.0054 39.5334 41.7273 39.5334Z" fill="#008AC1"/>
</svg>
