<svg width="70" height="70" viewBox="0 0 70 70" fill="none" xmlns="http://www.w3.org/2000/svg">
<g clip-path="url(#clip0_92_2916)">
<path d="M65.3064 28.1166C64.7265 12.4369 51.8571 0.0194141 36.1666 0H33.8332C22.7172 0.0300781 12.5791 6.35934 7.67088 16.3334H7C3.13564 16.3372 0.00382813 19.469 0 23.3334V46.6668C0.00423828 50.0812 2.4675 52.9962 5.83338 53.57V59.5C5.83338 59.9419 6.08303 60.3459 6.47828 60.5434C6.87354 60.741 7.34645 60.6985 7.7 60.4332L16.7218 53.6666H42C45.8644 53.6628 48.9962 50.531 49 46.6666V23.3334C48.9962 19.469 45.8644 16.3372 42 16.3334H15.7886C19.946 10.4938 26.6651 7.01859 33.8334 7H36.1668C47.9429 7.01941 57.6501 16.2404 58.2739 28H54.8334C52.9004 28 51.3334 29.5671 51.3334 31.5V50.1666C51.3334 52.0996 52.9004 53.6666 54.8334 53.6666H58.3334V54.8332C58.3295 58.0532 55.7201 60.6627 52.5 60.6666H31.2854C30.7928 59.2732 29.4779 58.3394 28 58.3332H18.6666C16.7337 58.3332 15.1666 59.9003 15.1666 61.8332V66.5C15.1666 68.4329 16.7337 70 18.6666 70H28C29.4779 69.9939 30.7928 69.0601 31.2854 67.6666H52.5C59.5842 67.6583 65.325 61.9175 65.3334 54.8332V53.5499C68.0475 52.9916 69.9966 50.6041 70 47.8332V33.8332C69.9948 31.0539 68.0318 28.6629 65.3064 28.1166ZM46.6666 23.3334V46.6668C46.6666 49.244 44.5773 51.3334 42 51.3334H16.3334C16.081 51.3334 15.8353 51.4153 15.6334 51.5668L8.16676 57.1668V52.5C8.16676 51.8556 7.64436 51.3334 7.00014 51.3334C4.42285 51.3334 2.33352 49.244 2.33352 46.6668V23.3334C2.33352 20.7561 4.42285 18.6668 7.00014 18.6668H42.0001C44.5773 18.6666 46.6666 20.756 46.6666 23.3334ZM36.1666 4.66662H33.8332C25.3355 4.68754 17.4526 9.10041 12.992 16.3332H10.283C14.9938 7.72215 24.0179 2.35744 33.8334 2.33324H36.1668C50.525 2.35074 62.3312 13.656 62.9709 27.9999H60.6071C59.9804 14.9518 49.23 4.68836 36.1666 4.66662ZM53.6666 50.1666V31.5C53.6666 30.8556 54.1889 30.3334 54.8332 30.3334H58.3332V51.3334H54.8332C54.189 51.3334 53.6666 50.811 53.6666 50.1666ZM29.1666 66.5C29.1666 67.1444 28.6442 67.6666 28 67.6666H18.6666C18.0223 67.6666 17.5 67.1444 17.5 66.5V61.8334C17.5 61.189 18.0224 60.6668 18.6666 60.6668H28C28.6444 60.6668 29.1666 61.189 29.1666 61.8334V66.5ZM52.5 65.3334H31.5V63H52.5C57.0079 62.9943 60.6609 59.3413 60.6666 54.8334V53.6668H63V54.8334C62.9936 60.6297 58.2963 65.327 52.5 65.3334ZM67.6666 47.8334C67.6666 49.7663 66.0995 51.3334 64.1666 51.3334H60.6666V30.3334H64.1666C66.0995 30.3334 67.6666 31.9004 67.6666 33.8334V47.8334Z" fill="#008AC1"/>
<path d="M5.83398 28.0001C5.83398 28.6445 6.35639 29.1667 7.00061 29.1667H29.1672C29.8116 29.1667 30.3338 28.6443 30.3338 28.0001C30.3338 27.3558 29.8114 26.8335 29.1672 26.8335H7.00061C6.35625 26.8335 5.83398 27.3558 5.83398 28.0001Z" fill="#008AC1"/>
<path d="M33.8326 29.1667H41.9993C42.6436 29.1667 43.1659 28.6443 43.1659 28.0001C43.1659 27.3558 42.6436 26.8335 41.9993 26.8335H33.8326C33.1883 26.8335 32.666 27.3559 32.666 28.0001C32.6659 28.6445 33.1883 29.1667 33.8326 29.1667Z" fill="#008AC1"/>
<path d="M42.0006 33.8335H7.00061C6.35625 33.8335 5.83398 34.3559 5.83398 35.0001C5.83398 35.6445 6.35639 36.1667 7.00061 36.1667H42.0006C42.645 36.1667 43.1672 35.6443 43.1672 35.0001C43.1672 34.3558 42.645 33.8335 42.0006 33.8335Z" fill="#008AC1"/>
<path d="M22.1672 40.8335H7.00061C6.35625 40.8335 5.83398 41.3558 5.83398 42.0001C5.83398 42.6445 6.35639 43.1667 7.00061 43.1667H22.1672C22.8116 43.1667 23.3338 42.6445 23.3338 42.0001C23.3338 41.3558 22.8116 40.8335 22.1672 40.8335Z" fill="#008AC1"/>
</g>
<defs>
<clipPath id="clip0_92_2916">
<rect width="70" height="70" fill="white"/>
</clipPath>
</defs>
</svg>
