<svg width="70" height="70" viewBox="0 0 70 70" fill="none" xmlns="http://www.w3.org/2000/svg">
<g clip-path="url(#clip0_92_2928)">
<path d="M63.8994 28.8167L59.227 28.3381C56.8734 28.1197 55.0186 26.2382 54.8333 23.8814V21.8563C55.7828 20.5676 56.468 19.1038 56.8493 17.5491C58.1161 17.0706 58.6812 15.7525 59.2713 14.3709L59.3236 14.2545C60.4799 11.5607 59.7359 8.73611 57.5741 7.79937C57.4363 7.74062 57.2958 7.68882 57.1527 7.64396C56.8937 3.43292 53.4624 0.11589 49.2449 0H46.4219C42.2055 0.116959 38.7763 3.43292 38.5173 7.64289C38.3533 7.69256 38.1915 7.75077 38.0334 7.81646C35.9277 8.7281 35.1832 11.5501 36.3394 14.2449L36.3918 14.3677C36.9824 15.7488 37.5469 17.0674 38.8137 17.5454C39.1881 19.0658 39.8524 20.4992 40.7705 21.7676C39.6949 21.2624 38.5216 21.0007 37.3333 21.0002H32.6667C30.9967 20.9997 29.3668 21.5145 28.0001 22.4747V21.8563C28.9491 20.5676 29.6343 19.1038 30.0162 17.5491C31.283 17.0706 31.8475 15.7525 32.4381 14.3709L32.4905 14.2545C33.6467 11.5607 32.9022 8.73611 30.7404 7.79937C30.6031 7.74062 30.4621 7.68882 30.3195 7.64396C30.0605 3.43292 26.6292 0.11589 22.4117 0H19.5882C15.3723 0.116959 11.9432 3.43292 11.6841 7.64289C11.5202 7.69256 11.3584 7.75077 11.2003 7.81646C9.09983 8.7281 8.35001 11.5501 9.50625 14.2449L9.55859 14.3677C10.1487 15.7488 10.7138 17.0674 11.9805 17.5454C12.3629 19.1016 13.0492 20.5665 13.9998 21.8563V23.8814C14.0009 26.1827 12.2566 28.109 9.96714 28.336L6.10057 28.8167C2.63026 29.1601 -0.0106489 32.0845 3.22842e-05 35.5714V41.0551C0.00270256 42.8645 1.46869 44.331 3.27861 44.3331H25.6118C26.0759 45.2597 26.6746 46.1132 27.3875 46.8651C27.348 49.5722 25.2695 51.8121 22.5725 52.0529L19.656 52.5993C15.7739 52.9907 12.8227 56.2635 12.8334 60.1647V66.4185C12.8356 68.3956 14.4377 69.9978 16.4148 69.9999H53.5852C55.5623 69.9978 57.165 68.3956 57.1666 66.4185V60.1647C57.1863 56.2971 54.2816 53.0393 50.4375 52.6169L47.334 52.0428C44.6696 51.7731 42.6354 49.5418 42.6124 46.864C43.3238 46.1116 43.9204 45.2592 44.3834 44.3331H66.7219C68.5313 44.331 69.9973 42.8645 70 41.0551V35.5714C70.0112 32.0845 67.3697 29.1601 63.8994 28.8167ZM57.2018 30.226C54.5876 31.7956 51.5974 32.6293 48.5485 32.6373C48.2953 32.0413 47.8638 31.5382 47.3132 31.198C46.7631 30.8856 46.1292 30.7526 45.5001 30.8178V29.1665C45.5017 27.6118 45.0558 26.0892 44.2168 24.7802C45.334 25.3602 46.5741 25.6641 47.8334 25.6668C49.5135 25.6625 51.1504 25.1322 52.5139 24.1501C52.7494 26.9197 54.5828 29.2957 57.2018 30.226ZM45.4803 54.0167L40.2498 58.813L38.8778 55.6183L43.2715 52.8684C43.938 53.3726 44.6846 53.7609 45.4803 54.0167ZM26.7168 52.8626L31.1206 55.6183L29.7502 58.813L24.5106 54.0167C25.3047 53.7566 26.0503 53.3667 26.7168 52.8626ZM36.1669 58.3335C36.811 58.3335 37.3333 58.8558 37.3333 59.4998V60.6667C37.3333 61.3108 36.811 61.8331 36.1669 61.8331H33.8336C33.189 61.8331 32.6667 61.3108 32.6667 60.6667V59.4998C32.6667 58.8558 33.189 58.3335 33.8336 58.3335H36.1669ZM33.9666 64.1664H36.0339L37.3429 67.6666H32.6576L33.9666 64.1664ZM36.7966 54.1705C36.764 54.1918 36.7464 54.2292 36.7165 54.2533C36.6273 54.3195 36.5488 54.398 36.4831 54.4866C36.4617 54.5149 36.4291 54.5299 36.4115 54.5593L35.5437 56.0002H34.4563L33.5826 54.5555C33.565 54.5267 33.5324 54.5112 33.5116 54.4834C33.4454 54.3942 33.3669 54.3157 33.2782 54.2501C33.2478 54.2255 33.2301 54.1881 33.1976 54.1673L28.3569 51.1338C28.8936 50.3616 29.2818 49.4964 29.5013 48.5821C32.8611 50.6858 37.1266 50.6858 40.4858 48.5821C40.7059 49.4975 41.0931 50.3643 41.6276 51.1386L36.7966 54.1705ZM44.0384 38.6668C44.0111 38.6737 43.9914 38.6924 43.9657 38.702C43.8899 38.7288 43.8178 38.7645 43.75 38.8078C43.6875 38.8414 43.6288 38.8804 43.5738 38.9248C43.5198 38.9755 43.4707 39.0316 43.4269 39.0914C43.3799 39.1475 43.3382 39.2073 43.303 39.2714C43.2736 39.336 43.2496 39.4038 43.232 39.4732C43.2074 39.5485 43.1908 39.627 43.1828 39.7061C43.1828 39.7322 43.1668 39.7541 43.1668 39.7798C43.1652 42.6973 41.6074 45.3927 39.0797 46.8502C36.5525 48.3081 33.4389 48.3065 30.9134 46.8464C28.3873 45.3863 26.8321 42.6893 26.8332 39.7718C26.8332 39.7483 26.8204 39.7285 26.8193 39.705C26.8113 39.6281 26.7953 39.5517 26.7718 39.4775C26.7093 39.1891 26.5229 38.9424 26.2618 38.8046C26.1939 38.7603 26.1213 38.7229 26.046 38.6935C26.0257 38.6818 26.0043 38.6711 25.983 38.662C24.5688 37.9309 23.5856 36.5722 23.3335 35C23.3335 34.0782 23.5317 33.4101 23.8644 33.2103C23.9621 33.1607 24.0705 33.1356 24.1805 33.1366C24.3498 34.1097 24.6874 35.0454 25.1792 35.902C25.3731 36.2796 25.7571 36.522 26.1811 36.5348C26.6057 36.5477 27.0036 36.3292 27.2204 35.9639C27.4367 35.5986 27.4377 35.1447 27.2231 34.7783C26.9341 34.2512 26.7056 33.6926 26.5427 33.1137C26.563 33.0902 26.5758 33.0624 26.5945 33.0378C26.6126 33.0133 26.6441 32.985 26.6628 32.9535C27.4778 32.7281 28.3221 32.6314 29.1665 32.6667C32.3062 32.6667 35.0817 30.6506 36.7138 29.1515C37.5416 31.3342 39.6671 32.7478 41.9999 32.6667C42.4261 32.6309 42.8544 32.6859 43.2576 32.8274C43.2672 32.8488 43.2843 32.8627 43.295 32.8824C43.2998 32.9017 43.3057 32.9209 43.3126 32.9396L43.3243 32.9535C43.2998 33.7375 43.107 34.507 42.7582 35.2099C42.5254 35.8112 42.8239 36.4873 43.4253 36.7202C44.0261 36.953 44.7022 36.6545 44.9356 36.0537C45.3399 35.1292 45.5839 34.1428 45.6576 33.1366C45.8163 33.1099 45.9791 33.1329 46.1244 33.2023C46.4625 33.4015 46.6643 34.0851 46.6643 35.0304C46.4149 36.5904 45.4403 37.9394 44.0384 38.6668ZM39.8615 15.4001C39.4215 15.3803 39.1988 14.9904 38.5408 13.4529L38.4874 13.3279C37.8236 11.7824 38.184 10.3388 38.9467 9.96818C39.0038 9.99969 39.0636 10.0333 39.1368 10.0686C39.4984 10.2523 39.9299 10.2357 40.2759 10.0237C40.622 9.81223 40.833 9.43572 40.8335 9.02984V8.1668C40.8089 5.02975 43.2864 2.44331 46.4219 2.3333H49.2449C52.3804 2.44331 54.8578 5.02975 54.8333 8.1668V9.02984C54.8333 9.43572 55.0442 9.81277 55.3903 10.0248C55.7364 10.2368 56.1679 10.2539 56.5294 10.0696C56.5973 10.0355 56.6581 10.0029 56.7212 9.96924C57.4758 10.3191 57.848 11.7706 57.1794 13.3306L57.126 13.454C56.468 14.9915 56.2448 15.3814 55.8053 15.4011C55.2563 15.4273 54.8002 15.8327 54.7099 16.3742C54.1331 19.7948 51.4078 23.3335 47.8334 23.3335C44.2589 23.3335 41.5331 19.7948 40.9569 16.3742C40.8671 15.8321 40.4105 15.4262 39.8615 15.4001ZM32.6667 23.3335H37.3333C40.5537 23.3372 43.1631 25.9466 43.1668 29.1665V30.4113C42.7801 30.3569 42.3903 30.3307 41.9999 30.3334C38.85 30.3334 38.5248 27.1344 38.5002 26.76C38.5002 26.7515 38.5002 26.7445 38.5002 26.7365C38.4858 26.6115 38.4516 26.4898 38.3987 26.376C38.3929 26.3525 38.3859 26.3295 38.3774 26.3071C38.3165 26.1944 38.238 26.0924 38.144 26.0048C38.1269 25.9888 38.1162 25.9664 38.0986 25.9514C38.081 25.9359 38.0885 25.9349 38.0799 25.9279C37.9496 25.8596 37.8188 25.7907 37.6879 25.7229C37.6265 25.709 37.564 25.701 37.5015 25.6983C37.4235 25.678 37.3434 25.6673 37.2633 25.6668C37.2543 25.6668 37.2468 25.6727 37.2366 25.6737C37.1571 25.6865 37.0791 25.7068 37.0032 25.7341C36.9328 25.749 36.8633 25.7699 36.7966 25.7971C36.7517 25.8275 36.7084 25.8606 36.6673 25.8964C36.5861 25.9488 36.5114 26.0102 36.4446 26.0796C36.4446 26.0866 36.4302 26.0892 36.4259 26.0962C36.3907 26.1378 32.9257 30.3312 29.1644 30.3312C28.383 30.32 27.6022 30.3772 26.8311 30.5016V29.1665C26.8348 25.9456 29.4458 23.3362 32.6667 23.3335ZM13.0284 15.4001C12.5883 15.3803 12.3656 14.9904 11.7076 13.4529L11.6537 13.3279C10.9899 11.7824 11.3503 10.3388 12.1135 9.96818C12.1707 9.99969 12.2305 10.0333 12.3036 10.0686C12.6652 10.2523 13.0962 10.2357 13.4422 10.0237C13.7883 9.81223 13.9998 9.43572 13.9998 9.02984V8.1668C13.9752 5.02975 16.4533 2.44331 19.5882 2.3333H22.4117C25.5472 2.44331 28.0247 5.02975 28.0001 8.1668V9.02984C28.0001 9.43572 28.2111 9.81277 28.5571 10.0248C28.9032 10.2368 29.3347 10.2539 29.6963 10.0696C29.7641 10.0355 29.8244 10.0029 29.8875 9.96924C30.6426 10.3191 31.0149 11.7706 30.3462 13.3306L30.2923 13.454C29.6343 14.9915 29.4116 15.3814 28.9721 15.4011C28.4231 15.4273 27.967 15.8327 27.8762 16.3742C27.3 19.7948 24.5747 23.3335 21.0002 23.3335C17.4252 23.3335 14.7 19.7948 14.1237 16.3742C14.0335 15.8321 13.5774 15.4262 13.0284 15.4001ZM16.3091 24.1404C19.1043 26.1699 22.8876 26.1699 25.6828 24.1404C25.6919 24.3754 25.7149 24.6088 25.7517 24.8406C24.9341 26.1352 24.4999 27.6353 24.4999 29.1665V30.8199C23.8633 30.7542 23.2224 30.8899 22.667 31.2082C22.1185 31.5505 21.6897 32.0541 21.4398 32.6501C21.2929 32.6501 21.1482 32.6667 21.0002 32.6667C17.7537 32.7532 14.5467 31.935 11.7391 30.3029C14.3918 29.3945 16.2092 26.9442 16.3091 24.1421V24.1404ZM3.27861 41.9999C3.0276 41.9999 2.78728 41.9005 2.60997 41.7232C2.4332 41.5459 2.33333 41.3056 2.33333 41.0551V35.5714C2.32799 33.2744 4.07168 31.3508 6.35852 31.1302L8.76658 30.8338C11.1859 33.3748 15.8669 35 21.0002 35C21.2422 37.3103 22.5559 39.3728 24.548 40.5686C24.5875 41.0503 24.6607 41.5283 24.7659 41.9999H3.27861ZM15.1667 66.4185V60.1647C15.1715 57.4288 17.2629 55.1483 19.9887 54.9069L21.686 54.5881L29.386 61.643C29.6012 61.8401 29.8821 61.9496 30.1737 61.9501C30.256 61.9501 30.3382 61.9415 30.4183 61.9245C30.4664 61.9047 30.5134 61.8823 30.5588 61.8566C30.7906 62.4932 31.2029 63.0486 31.7449 63.4551L30.1652 67.6666H16.4148C16.0832 67.6698 15.7633 67.5395 15.5283 67.3051C15.2938 67.0701 15.1635 66.7502 15.1667 66.4185ZM54.8333 60.1647V66.4185C54.837 66.7502 54.7062 67.0701 54.4717 67.3051C54.2367 67.5395 53.9174 67.6698 53.5852 67.6666H39.8348L38.2583 63.4551C38.8009 63.0486 39.2132 62.4932 39.445 61.8566C39.4904 61.8823 39.5368 61.9047 39.5849 61.9245C39.6655 61.9415 39.7478 61.9501 39.83 61.9501C40.1216 61.9496 40.4025 61.8401 40.6177 61.643L48.3178 54.5897L50.1085 54.9208C52.7975 55.1943 54.8408 57.4624 54.8333 60.1647ZM67.6667 41.0551C67.6667 41.3056 67.5673 41.5459 67.39 41.7232C67.2127 41.9005 66.9724 41.9999 66.7219 41.9999H45.2331C45.3372 41.5352 45.4098 41.0642 45.4499 40.5894C47.4515 39.4102 48.7701 37.3466 48.9998 35.0352C48.9998 35.0048 48.9998 34.9813 48.9998 34.9508C53.7171 34.726 57.9062 33.1543 60.1311 30.7708L63.6671 31.1323C65.9443 31.3625 67.6747 33.283 67.6667 35.5714V41.0551Z" fill="#008AC1"/>
</g>
<defs>
<clipPath id="clip0_92_2928">
<rect width="70" height="70" fill="white"/>
</clipPath>
</defs>
</svg>
