<svg width="70" height="67" viewBox="0 0 70 67" fill="none" xmlns="http://www.w3.org/2000/svg">
<path fill-rule="evenodd" clip-rule="evenodd" d="M26.9547 3.66004C21.5086 5.14708 16.6726 8.09911 12.9025 12.0632C15.2594 13.308 17.7283 14.3605 20.2898 15.2006C21.2487 12.3327 22.439 9.76171 23.8186 7.58662C24.762 6.09909 25.8119 4.77198 26.9547 3.66004ZM19.5418 17.6688C18.8624 20.1554 18.347 22.8241 18.0188 25.6199C17.9359 26.3268 18.4452 26.9665 19.1562 27.049C19.8674 27.1315 20.511 26.6253 20.5939 25.9185C20.9063 23.2572 21.3933 20.7383 22.026 18.4089C25.7683 19.4184 29.6781 20.0045 33.7037 20.1135V25.7692C33.7037 26.4808 34.2841 27.0577 35 27.0577C35.7159 27.0577 36.2963 26.4808 36.2963 25.7692V20.1177C40.3529 20.0208 44.2931 19.4395 48.0636 18.4284C48.6937 20.7523 49.1789 23.2646 49.4903 25.9185C49.5733 26.6253 50.2169 27.1315 50.9281 27.049C51.6393 26.9665 52.1484 26.3268 52.0654 25.6199C51.7383 22.8328 51.2251 20.172 50.5489 17.692C53.47 16.7432 56.2772 15.533 58.9445 14.0882C63.0512 19.2477 65.5028 25.7683 65.5028 32.858C65.5028 36.582 64.827 40.1462 63.5918 43.4379C63.3416 44.1047 63.6825 44.8467 64.3533 45.0955C65.024 45.3442 65.7707 45.0053 66.0209 44.3385C67.3627 40.7631 68.0954 36.8941 68.0954 32.858C68.0954 14.7357 53.3332 0.0404255 35.1091 0.0045096C35.0731 0.0014495 35.0368 0 35 0C34.9621 0 34.9245 0.00161038 34.8875 0.00483153C25.0281 0.0497666 16.1885 4.38512 10.1615 11.2294C9.9562 11.3388 9.77796 11.5047 9.65287 11.72C9.61074 11.7926 9.57639 11.8677 9.54965 11.9442C4.8266 17.6255 1.98884 24.9124 1.98884 32.858C1.98884 36.8626 2.71023 40.7025 4.03213 44.2546C4.28037 44.9221 5.02606 45.263 5.69755 45.0161C6.36903 44.7692 6.71206 44.0282 6.46366 43.3608C5.24676 40.0905 4.58144 36.5528 4.58144 32.858C4.58144 25.7547 7.04245 19.2229 11.1631 14.0587C13.8248 15.5047 16.6265 16.717 19.5418 17.6688ZM36.2963 2.69369V17.54C40.0943 17.4443 43.7835 16.9011 47.3163 15.9597C46.4197 13.2906 45.3209 10.9292 44.0726 8.96077C41.7605 5.31555 39.059 3.18878 36.2963 2.69369ZM49.8022 15.2235C52.37 14.3858 54.845 13.3348 57.2077 12.0904C53.4338 8.11264 48.5881 5.15046 43.1296 3.66004C44.2724 4.77198 45.3222 6.09909 46.2656 7.58662C47.6489 9.76751 48.8419 12.3464 49.8022 15.2235ZM33.7037 17.5356C29.9373 17.4281 26.2785 16.8801 22.7745 15.9405C23.6699 13.2794 24.7662 10.9245 26.0118 8.96077C28.3003 5.35275 30.9703 3.23227 33.7037 2.70931V17.5356ZM15.7176 31.5673C12.8539 31.5673 10.5324 33.8748 10.5324 36.7212C10.5324 39.5675 12.8539 41.875 15.7176 41.875C18.5813 41.875 20.9028 39.5675 20.9028 36.7212C20.9028 33.8748 18.5813 31.5673 15.7176 31.5673ZM7.93981 36.7212C7.93981 32.4515 11.422 28.9904 15.7176 28.9904C20.0132 28.9904 23.4954 32.4515 23.4954 36.7212C23.4954 40.9908 20.0132 44.4519 15.7176 44.4519C11.422 44.4519 7.93981 40.9908 7.93981 36.7212ZM35.3241 31.5673C32.4604 31.5673 30.1389 33.8748 30.1389 36.7212C30.1389 39.5675 32.4604 41.875 35.3241 41.875C38.1878 41.875 40.5093 39.5675 40.5093 36.7212C40.5093 33.8748 38.1878 31.5673 35.3241 31.5673ZM27.5463 36.7212C27.5463 32.4515 31.0285 28.9904 35.3241 28.9904C39.6197 28.9904 43.1018 32.4515 43.1018 36.7212C43.1018 40.9908 39.6197 44.4519 35.3241 44.4519C31.0285 44.4519 27.5463 40.9908 27.5463 36.7212ZM54.2824 31.5673C51.4187 31.5673 49.0972 33.8748 49.0972 36.7212C49.0972 39.5675 51.4187 41.875 54.2824 41.875C57.1461 41.875 59.4676 39.5675 59.4676 36.7212C59.4676 33.8748 57.1461 31.5673 54.2824 31.5673ZM46.5046 36.7212C46.5046 32.4515 49.9868 28.9904 54.2824 28.9904C58.578 28.9904 62.0602 32.4515 62.0602 36.7212C62.0602 40.9908 58.578 44.4519 54.2824 44.4519C49.9868 44.4519 46.5046 40.9908 46.5046 36.7212ZM24.913 48.4589C27.2375 47.0454 30.5509 46.0625 35.2431 46.0625C39.7824 46.0625 43.0315 46.9825 45.343 48.3221C47.5956 47.1509 50.6456 46.3846 54.7633 46.3846C62.0067 46.3846 65.9154 48.7636 67.9645 51.4291C69.5981 53.5539 69.9208 55.6967 69.9844 56.5159C69.9947 56.5812 70 56.6482 70 56.7163V56.8566C70 58.4797 69.9984 59.8769 69.9072 61.0362C69.8166 62.1886 69.6299 63.2437 69.1801 64.1346C68.1798 66.1156 66.1939 66.7409 63.4804 66.9944L63.4198 67H26.4399L26.4373 66.9998C26.4289 66.9998 26.4205 67 26.412 67H6.58016L6.51972 66.9944C3.80609 66.7409 1.82016 66.1156 0.819908 64.1346C0.370093 63.2437 0.183426 62.1886 0.0928475 61.0362C0.00162067 59.8775 0 58.4812 0 56.8593V56.7163C0 56.6482 0.00534733 56.5812 0.0155557 56.5159C0.0792362 55.6967 0.401852 53.5539 2.03551 51.4291C4.08463 48.7636 7.99329 46.3846 15.2367 46.3846C19.5125 46.3846 22.6369 47.2108 24.913 48.4589ZM22.6638 50.2329C20.9076 49.4863 18.5103 48.9615 15.2367 48.9615C8.61032 48.9615 5.5488 51.1033 4.09549 52.9938C2.62306 54.9088 2.59308 56.8321 2.59259 56.8593C2.59275 58.5126 2.59599 59.798 2.6775 60.8354C2.75981 61.8811 2.91407 62.5373 3.13704 62.9787C3.47958 63.6571 4.15787 64.1784 6.70266 64.4231H20.7811C20.7176 64.3182 20.6571 64.2092 20.5998 64.0956C20.1444 63.1929 19.9549 62.1229 19.8628 60.9508C19.7703 59.7725 19.7685 58.352 19.7685 56.7007M26.5624 64.4231H43.9237C46.5135 64.1739 47.2145 63.6426 47.5687 62.9405C47.7975 62.4872 47.9549 61.8156 48.0386 60.7502C48.1216 59.6931 48.125 58.3836 48.125 56.7012C48.1245 56.6762 48.0955 54.7099 46.5916 52.7522C45.1082 50.8213 41.9874 48.6394 35.2431 48.6394C28.4987 48.6394 25.3779 50.8213 23.8945 52.7522C22.3906 54.7099 22.3616 56.6762 22.3611 56.701C22.3611 58.3836 22.3645 59.6931 22.4475 60.7502C22.5312 61.8156 22.6886 62.4872 22.9174 62.9405C23.2716 63.6426 23.9726 64.1739 26.5624 64.4231ZM50.7176 56.6938V56.5557C50.7176 56.4873 50.7122 56.4201 50.7019 56.3546C50.6375 55.5245 50.3109 53.3475 48.6523 51.1883C48.3659 50.8156 48.0438 50.4484 47.6818 50.0922C49.4033 49.4212 51.6995 48.9615 54.7633 48.9615C61.3897 48.9615 64.4512 51.1033 65.9045 52.9938C67.3781 54.9102 67.4069 56.835 67.4074 56.8593C67.4074 58.5126 67.404 59.798 67.3225 60.8354C67.2402 61.8811 67.0859 62.5373 66.863 62.9787C66.5204 63.6571 65.8421 64.1784 63.2973 64.4231H49.705C49.7685 64.3182 49.829 64.2092 49.8863 64.0956C50.3417 63.1929 50.5312 62.1229 50.6233 60.9508C50.716 59.7721 50.7176 58.3507 50.7176 56.6984V56.6971M22.6638 50.2329C22.3584 50.5449 22.0826 50.8646 21.8338 51.1883C20.1752 53.3475 19.8486 55.5245 19.7842 56.3546C19.7739 56.4201 19.7685 56.4873 19.7685 56.5557V56.6994M67.4074 56.8593V56.8595V56.8584L68.7037 56.8551" fill="#008AC1"/>
</svg>
