<svg width="69" height="69" viewBox="0 0 69 69" fill="none" xmlns="http://www.w3.org/2000/svg">
<path d="M57.1397 48.5682C53.997 48.5682 51.4258 45.9969 51.4258 42.8543C51.4258 39.7116 53.997 37.1404 57.1397 37.1404C60.2823 37.1404 62.8536 39.7116 62.8536 42.8543C62.8536 45.9969 60.2823 48.5682 57.1397 48.5682ZM57.1397 39.9973C55.4255 39.9973 54.2827 41.1401 54.2827 42.8543C54.2827 44.5685 55.4255 45.7112 57.1397 45.7112C58.8539 45.7112 59.9966 44.5685 59.9966 42.8543C59.9966 41.1401 58.8539 39.9973 57.1397 39.9973Z" fill="#008AC1"/>
<path d="M67.139 62.8531C66.2819 62.8531 65.7105 62.2817 65.7105 61.4246V58.5677C65.7105 56.2821 63.7107 54.2822 61.4251 54.2822H52.8543C51.9972 54.2822 51.4258 53.7109 51.4258 52.8538C51.4258 51.9967 51.9972 51.4253 52.8543 51.4253H61.4251C65.4249 51.4253 68.5675 54.5679 68.5675 58.5677V61.4246C68.5675 62.2817 67.9961 62.8531 67.139 62.8531Z" fill="#008AC1"/>
<path d="M11.4288 48.5682C8.2861 48.5682 5.71484 45.9969 5.71484 42.8543C5.71484 39.7116 8.2861 37.1404 11.4288 37.1404C14.5714 37.1404 17.1427 39.7116 17.1427 42.8543C17.1427 45.9969 14.5714 48.5682 11.4288 48.5682ZM11.4288 39.9973C9.71458 39.9973 8.5718 41.1401 8.5718 42.8543C8.5718 44.5685 9.71458 45.7112 11.4288 45.7112C13.1429 45.7112 14.2857 44.5685 14.2857 42.8543C14.2857 41.1401 13.1429 39.9973 11.4288 39.9973Z" fill="#008AC1"/>
<path d="M1.42848 62.8531C0.571391 62.8531 0 62.2817 0 61.4246V58.5677C0 54.5679 3.14265 51.4253 7.14238 51.4253H15.7132C16.5703 51.4253 17.1417 51.9967 17.1417 52.8538C17.1417 53.7109 16.5703 54.2822 15.7132 54.2822H7.14238C4.85682 54.2822 2.85695 56.2821 2.85695 58.5677V61.4246C2.85695 62.2817 2.28556 62.8531 1.42848 62.8531Z" fill="#008AC1"/>
<path d="M34.2838 49.9967C29.4269 49.9967 25.7129 46.2827 25.7129 41.4258C25.7129 36.569 29.4269 32.855 34.2838 32.855C39.1406 32.855 42.8546 36.569 42.8546 41.4258C42.8546 46.2827 39.1406 49.9967 34.2838 49.9967ZM34.2838 35.7119C31.1411 35.7119 28.5698 38.2832 28.5698 41.4258C28.5698 44.5685 31.1411 47.1398 34.2838 47.1398C37.4264 47.1398 39.9977 44.5685 39.9977 41.4258C39.9977 38.2832 37.4264 35.7119 34.2838 35.7119Z" fill="#008AC1"/>
<path d="M48.5683 68.567C47.7112 68.567 47.1399 67.9956 47.1399 67.1385V61.4246C47.1399 59.139 45.14 57.1392 42.8544 57.1392H25.7127C23.4271 57.1392 21.4273 59.139 21.4273 61.4246V67.1385C21.4273 67.9956 20.8559 68.567 19.9988 68.567C19.1417 68.567 18.5703 67.9956 18.5703 67.1385V61.4246C18.5703 57.4249 21.713 54.2822 25.7127 54.2822H42.8544C46.8542 54.2822 49.9968 57.4249 49.9968 61.4246V67.1385C49.9968 67.9956 49.4254 68.567 48.5683 68.567Z" fill="#008AC1"/>
<path d="M26.2833 28.5695C25.9976 28.5695 25.712 28.5695 25.712 28.2838C25.1406 27.9981 24.8549 27.4268 24.8549 26.8554L26.2833 18.2845L20.2837 12.2849C19.998 11.9992 19.998 11.4278 19.998 10.8564C20.2837 10.285 20.5694 9.99934 21.1408 9.99934L29.426 8.57086L33.14 0.857086C33.14 0.285695 33.7114 0 34.2828 0C34.8542 0 35.4256 0.285695 35.7113 0.857086L39.1396 8.57086L47.1391 9.71364C47.7105 9.71364 47.9962 10.285 48.2819 10.5707C48.5676 10.8564 48.2819 11.7135 47.9962 11.9992L41.9966 17.9988L43.4251 26.5697C43.4251 27.1411 43.4251 27.7125 42.8537 27.9981C42.2823 28.2838 41.7109 28.2838 41.4252 27.9981L34.2828 24.2841L27.1404 28.2838C26.8547 28.5695 26.569 28.5695 26.2833 28.5695ZM24.2835 12.2849L28.8546 16.856C29.1403 17.1417 29.426 17.7131 29.1403 17.9988L28.2832 24.5698L33.7114 21.7129C33.9971 21.4272 34.5685 21.4272 35.1399 21.7129L40.5681 24.5698L39.4253 18.2845C39.4253 17.7131 39.4253 17.4274 39.711 17.1417L44.2822 12.5706L38.2826 11.7135C37.7112 11.7135 37.4255 11.4278 37.1398 10.8564L34.5685 5.14252L31.9973 10.8564C31.4259 10.8564 30.8545 11.1421 30.5688 11.4278L24.2835 12.2849Z" fill="#008AC1"/>
<path d="M51.1394 25.7126C50.8537 25.7126 50.568 25.7126 50.2823 25.4269C49.7109 25.1412 49.7109 24.5698 49.7109 23.9984L50.8537 16.856C50.8537 15.9989 51.7108 15.4275 52.5679 15.7132C53.425 15.7132 53.9964 16.5703 53.7107 17.4274L53.1393 21.7128L56.8533 19.713C57.4247 19.4273 57.7104 19.4273 58.2818 19.713L61.9958 21.7128L60.8531 17.1417C60.8531 16.5703 60.8531 16.2846 61.1387 15.9989L64.2814 12.8563L59.996 12.2849C59.4246 12.2849 59.1389 11.9992 58.8532 11.4278L57.139 7.71375L55.4248 11.4278C55.1391 12.2849 54.2821 12.5706 53.425 11.9992C52.5679 11.7135 52.2822 10.8564 52.8536 9.99932L55.9962 3.42832C55.9962 3.14263 56.5676 2.85693 57.139 2.85693C57.7104 2.85693 58.2818 3.14263 58.5675 3.71402L61.4244 9.71362L67.7097 10.5707C68.2811 10.5707 68.5668 11.1421 68.8525 11.4278C69.1382 11.9992 68.8525 12.5706 68.5668 12.8563L63.9957 17.4274L65.1385 23.9984C65.1385 24.5698 65.1385 25.1412 64.5671 25.4269C63.9957 25.7126 63.4243 25.7126 63.1386 25.4269L57.139 22.5699L51.7108 25.7126C51.4251 25.7126 51.1394 25.7126 51.1394 25.7126Z" fill="#008AC1"/>
<path d="M17.4274 25.7126C17.4274 25.7126 17.1417 25.7126 16.856 25.4269L11.4278 22.5699L5.9996 25.4269C5.42821 25.7126 4.85682 25.7126 4.28543 25.4269C3.99974 25.1412 3.71404 24.5698 3.71404 23.9984L4.85682 17.4274L0.285695 12.8563C0 12.5706 0 11.9992 0 11.4278C0.285695 10.8564 0.571391 10.5707 1.14278 10.5707L7.42808 9.71362L10.285 3.71402C10.285 3.14263 10.8564 2.85693 11.4278 2.85693C11.9992 2.85693 12.5706 3.14263 12.8563 3.71402L15.9989 10.285C16.2846 10.8564 15.9989 11.7135 15.4276 12.2849C14.2848 12.5706 13.4277 12.2849 13.142 11.4278L11.4278 7.71376L9.71364 11.4278C9.42795 11.9992 9.14225 12.2849 8.57086 12.2849L4.28543 12.8563L7.42808 15.9989C7.71378 16.2846 7.99947 16.856 7.71378 17.1417L7.14238 21.7128L10.8564 19.713C11.4278 19.4273 11.7135 19.4273 12.2849 19.713L15.9989 21.7128L14.8562 17.1417C14.8562 16.2846 15.1419 15.7132 15.9989 15.4275C16.856 15.4275 17.4274 15.7132 17.7131 16.5703L18.8559 23.7127C18.8559 24.2841 18.5702 24.8555 18.2845 25.1412C17.9988 25.7126 17.7131 25.7126 17.4274 25.7126Z" fill="#008AC1"/>
</svg>
