<svg width="70" height="66" viewBox="0 0 70 66" fill="none" xmlns="http://www.w3.org/2000/svg">
<path d="M30.2604 19.7872H39.5938C40.2382 19.7874 40.7606 19.265 40.7604 18.6206L40.7604 16.3841C40.7533 14.3003 39.6317 12.3797 37.8204 11.3495C38.813 9.89127 38.5653 7.92221 37.2423 6.75531C35.9194 5.5884 33.9348 5.5884 32.6118 6.75531C31.2889 7.92221 31.0411 9.89127 32.0338 11.3495C30.2224 12.3797 29.1008 14.3003 29.0938 16.3841V18.6206C29.0936 19.265 29.616 19.7874 30.2604 19.7872ZM33.7604 9.38408C33.7604 8.73974 34.2828 8.21741 34.9271 8.21741C35.5714 8.21741 36.0938 8.73974 36.0938 9.38408C36.0938 10.0284 35.5714 10.5507 34.9271 10.5507C34.283 10.5501 33.7611 10.0281 33.7604 9.38408ZM31.4271 16.3841C31.4271 14.4511 32.9941 12.8841 34.9271 12.8841C36.8601 12.8841 38.4271 14.4511 38.4271 16.3841V17.4539H31.4271V16.3841Z" fill="#008AC1"/>
<path d="M14.4864 41.6833C15.479 40.225 15.2313 38.256 13.9083 37.089C12.5854 35.9221 10.6008 35.9221 9.27786 37.089C7.95492 38.256 7.70716 40.225 8.69977 41.6833C6.88844 42.7134 5.76684 44.6341 5.75977 46.7178L5.75977 48.9531C5.75959 49.2626 5.88245 49.5595 6.10128 49.7783C6.32011 49.9971 6.61696 50.12 6.92643 50.1198H16.2598C16.5692 50.12 16.8661 49.9971 17.0849 49.7783C17.3038 49.5595 17.4266 49.2626 17.4264 48.9531L17.4264 46.7178C17.4194 44.6341 16.2978 42.7134 14.4864 41.6833ZM10.4264 39.7178C10.4264 39.0735 10.9488 38.5512 11.5931 38.5512C12.2374 38.5512 12.7598 39.0735 12.7598 39.7178C12.7598 40.3621 12.2374 40.8845 11.5931 40.8845C10.9489 40.884 10.4269 40.362 10.4264 39.7178ZM15.0931 47.7865H8.0931V46.7178C8.0931 44.7848 9.66011 43.2178 11.5931 43.2178C13.5261 43.2178 15.0931 44.7848 15.0931 46.7178V47.7865Z" fill="#008AC1"/>
<path d="M61.7611 39.6929C61.7628 38.1893 60.8039 36.8526 59.3791 36.3723C57.9543 35.892 56.3819 36.3754 55.473 37.5732C54.564 38.7709 54.5217 40.4154 55.3677 41.6584C53.5564 42.6885 52.4348 44.6091 52.4277 46.6929V48.9294C52.4276 49.2389 52.5504 49.5357 52.7692 49.7545C52.9881 49.9734 53.2849 50.0962 53.5944 50.096H62.9277C63.2372 50.0962 63.5341 49.9734 63.7529 49.7545C63.9717 49.5357 64.0946 49.2389 64.0944 48.9294L64.0944 46.6929C64.0873 44.6091 62.9657 42.6885 61.1544 41.6584C61.5501 41.0793 61.7616 40.3942 61.7611 39.6929ZM57.0944 39.6929C57.0944 39.0486 57.6167 38.5262 58.2611 38.5262C58.9054 38.5262 59.4277 39.0486 59.4277 39.6929C59.4277 40.3372 58.9054 40.8596 58.2611 40.8596C57.6169 40.8591 57.0948 40.337 57.0944 39.6929ZM61.7611 47.7627H54.7611V46.6929C54.7611 44.7599 56.3281 43.1929 58.2611 43.1929C60.1941 43.1929 61.7611 44.7599 61.7611 46.6929V47.7627Z" fill="#008AC1"/>
<path d="M68.8333 31.5022H62.3733C60.6146 23.2617 55.2399 16.2506 47.7389 12.4121C47.5187 5.4794 41.8241 -0.0206197 34.888 5.81135e-05C27.9518 0.0207388 22.2902 5.55461 22.1112 12.4885C14.6881 16.3481 9.37621 23.3208 7.62613 31.5022H1.16667C0.522266 31.5021 -0.0001661 32.0245 7.92524e-07 32.6689L1.96478e-07 53.6689C-0.000179333 53.9784 0.12268 54.2752 0.341511 54.4941C0.560342 54.7129 0.857192 54.8357 1.16667 54.8356L13.1609 54.8356C18.4672 61.472 26.5031 65.3355 35.0001 65.3355C43.497 65.3355 51.5329 61.472 56.8392 54.8356L68.8333 54.8356C69.1428 54.8357 69.4397 54.7129 69.6585 54.4941C69.8773 54.2752 70.0002 53.9784 70 53.6689V32.6689C70.0002 32.0245 69.4777 31.5021 68.8333 31.5022ZM34.9271 2.33559C40.7261 2.33559 45.4271 7.0366 45.4271 12.8356C45.4271 18.6346 40.7261 23.3356 34.9271 23.3356C29.1281 23.3356 24.4271 18.6346 24.4271 12.8356C24.4336 7.0393 29.1308 2.34211 34.9271 2.33559ZM2.33333 33.8356H21V52.5022H2.33333V33.8356ZM35 63.0022C27.8787 63.026 21.0736 60.0638 16.2385 54.8356L22.1667 54.8356C22.4761 54.8357 22.773 54.7129 22.9918 54.4941C23.2107 54.2752 23.3335 53.9784 23.3333 53.6689L23.3333 32.6689C23.3335 32.0245 22.8111 31.5021 22.1667 31.5022L10.0078 31.5022C11.6379 24.5442 16.09 18.5783 22.2963 15.0352C23.3613 21.195 28.7145 25.6881 34.9657 25.669C41.2168 25.6499 46.5424 21.1242 47.5698 14.958C53.8464 18.4879 58.3533 24.4902 59.9924 31.5022H47.8333C47.1889 31.5021 46.6665 32.0245 46.6667 32.6689L46.6667 53.6689C46.6665 53.9784 46.7893 54.2752 47.0082 54.4941C47.227 54.7129 47.5238 54.8357 47.8333 54.8356L53.7627 54.8356C48.9266 60.063 42.1214 63.0251 35 63.0022ZM67.6667 52.5022H49V33.8356H67.6667V52.5022Z" fill="#008AC1"/>
<path d="M38.7654 29.7837C38.5833 29.6624 38.3493 29.6511 38.1564 29.7543C37.9635 29.8575 37.8431 30.0585 37.8431 30.2773V32.6689H26.8327C26.1884 32.6689 25.666 33.1912 25.666 33.8355C25.666 34.4799 26.1884 35.0022 26.8327 35.0022H37.8431V37.3937C37.8431 37.6125 37.9635 37.8135 38.1564 37.9167C38.3493 38.02 38.5833 38.0087 38.7654 37.8873L44.1027 34.329C44.2678 34.219 44.3669 34.0338 44.3669 33.8355C44.3669 33.6371 44.2678 33.4519 44.1027 33.3419L38.7654 29.7837Z" fill="#008AC1"/>
<path d="M43.1671 40.8356H32.1567V38.4441C32.1566 38.2253 32.0362 38.0243 31.8434 37.921C31.6505 37.8178 31.4164 37.8291 31.2344 37.9504L25.897 41.5087C25.732 41.6187 25.6328 41.8039 25.6328 42.0022C25.6328 42.2006 25.732 42.3858 25.897 42.4958L31.2344 46.0541C31.4164 46.1755 31.6505 46.1868 31.8434 46.0835C32.0363 45.9803 32.1567 45.7793 32.1567 45.5605V43.1689H43.1671C43.8114 43.1689 44.3337 42.6466 44.3337 42.0023C44.3337 41.3579 43.8114 40.8356 43.1671 40.8356Z" fill="#008AC1"/>
</svg>
